<svg width="150" height="53" viewBox="0 0 150 53" fill="none" xmlns="http://www.w3.org/2000/svg">
<path d="M3.53857 22.2969L22.7705 30.0898V35.5449L0.00390625 24.9966V21.7959L3.53857 22.2969ZM22.7705 15.8955L3.56641 23.7998L0.00390625 24.1895V20.9609L22.7705 10.4404V15.8955ZM35.8242 16.6748V52.5781H30.6475V10.8857H35.3789L35.8242 16.6748ZM56.1138 25.6924V26.2769C56.1138 28.4663 55.854 30.498 55.3345 32.3721C54.8149 34.2275 54.0542 35.8418 53.0522 37.2148C52.0688 38.5879 50.8535 39.6548 49.4062 40.4155C47.959 41.1763 46.2983 41.5566 44.4243 41.5566C42.5132 41.5566 40.8247 41.2412 39.3589 40.6104C37.8931 39.9795 36.6499 39.061 35.6294 37.855C34.6089 36.6489 33.7925 35.2017 33.1802 33.5132C32.5864 31.8247 32.1782 29.9229 31.9556 27.8076V24.6904C32.1782 22.4639 32.5957 20.4692 33.208 18.7065C33.8203 16.9438 34.6274 15.4409 35.6294 14.1978C36.6499 12.936 37.8838 11.9805 39.3311 11.3311C40.7783 10.6631 42.4482 10.3291 44.3408 10.3291C46.2334 10.3291 47.9126 10.7002 49.3784 11.4424C50.8442 12.166 52.0781 13.2051 53.0801 14.5596C54.082 15.9141 54.8335 17.5376 55.3345 19.4302C55.854 21.3042 56.1138 23.3916 56.1138 25.6924ZM50.937 26.2769V25.6924C50.937 24.1895 50.7793 22.7793 50.4639 21.4619C50.1484 20.126 49.6567 18.957 48.9888 17.9551C48.3394 16.9346 47.5044 16.1367 46.4839 15.5615C45.4634 14.9678 44.248 14.6709 42.8379 14.6709C41.5391 14.6709 40.4072 14.8936 39.4424 15.3389C38.4961 15.7842 37.689 16.3872 37.021 17.1479C36.353 17.8901 35.8057 18.7437 35.3789 19.7085C34.9707 20.6548 34.6646 21.6382 34.4604 22.6587V29.8672C34.8315 31.166 35.3511 32.3906 36.019 33.541C36.687 34.6729 37.5776 35.5913 38.6909 36.2964C39.8042 36.9829 41.2051 37.3262 42.8936 37.3262C44.2852 37.3262 45.4819 37.0386 46.4839 36.4634C47.5044 35.8696 48.3394 35.0625 48.9888 34.042C49.6567 33.0215 50.1484 31.8525 50.4639 30.5352C50.7793 29.1992 50.937 27.7798 50.937 26.2769ZM89.6797 17.8994V22.269H67.748V17.8994H89.6797ZM68.583 0.476562V41H63.2114V0.476562H68.583ZM94.3555 0.476562V41H89.0117V0.476562H94.3555ZM120.796 0.476562L103.902 44.479H99.4771L116.399 0.476562H120.796ZM145.79 23.4102L126.001 15.7007V10.3848L149.77 20.9053V24.1616L145.79 23.4102ZM126.001 30.2012L145.846 22.3247L149.77 21.7402V24.9688L126.001 35.5171V30.2012Z" fill="#C084FC"/>
</svg>
